<?xml version="1.0" encoding="UTF-8" standalone="no"?>
<svg
   xmlns:dc="http://purl.org/dc/elements/1.1/"
   xmlns:cc="http://creativecommons.org/ns#"
   xmlns:rdf="http://www.w3.org/1999/02/22-rdf-syntax-ns#"
   xmlns:svg="http://www.w3.org/2000/svg"
   xmlns="http://www.w3.org/2000/svg"
   xmlns:sodipodi="http://sodipodi.sourceforge.net/DTD/sodipodi-0.dtd"
   xmlns:inkscape="http://www.inkscape.org/namespaces/inkscape"
   width="34.16917"
   height="34.1689"
   id="svg2"
   version="1.1"
   inkscape:version="0.91 r13725"
   sodipodi:docname="method-draw-image.svg">
  <metadata
     id="metadata24">
    <rdf:RDF>
      <cc:Work
         rdf:about="">
        <dc:format>image/svg+xml</dc:format>
        <dc:type
           rdf:resource="http://purl.org/dc/dcmitype/StillImage" />
        <dc:title></dc:title>
      </cc:Work>
    </rdf:RDF>
  </metadata>
  <defs
     id="defs22" />
  <sodipodi:namedview
     pagecolor="#ffffff"
     bordercolor="#666666"
     borderopacity="1"
     objecttolerance="10"
     gridtolerance="10"
     guidetolerance="10"
     inkscape:pageopacity="0"
     inkscape:pageshadow="2"
     inkscape:window-width="3200"
     inkscape:window-height="1745"
     id="namedview20"
     showgrid="false"
     inkscape:zoom="1.18"
     inkscape:cx="242.34314"
     inkscape:cy="100.93232"
     inkscape:window-x="0"
     inkscape:window-y="55"
     inkscape:window-maximized="1"
     inkscape:current-layer="svg2"
     fit-margin-top="0"
     fit-margin-left="0"
     fit-margin-right="0"
     fit-margin-bottom="0" />
  <!-- Created with Method Draw - http://github.com/duopixel/Method-Draw/ -->
  <g
     id="g12"
     style="fill:#ffffff"
     transform="translate(-272.91542,-182.91556)">
    <title
       id="title14">Layer 1</title>
    <g
       stroke="null"
       id="svg_7"
       style="fill:#ffffff">
      <path
         stroke="null"
         id="svg_4"
         d="m 289.9999,185.9939 c 4.56177,0 5.10207,0.0174 6.90376,0.0996 1.66571,0.076 2.57026,0.35428 3.17233,0.58824 a 5.29324,5.29324 0 0 1 1.96439,1.27801 5.29324,5.29324 0 0 1 1.278,1.96438 c 0.23397,0.60201 0.51229,1.50662 0.58825,3.17234 0.0822,1.80155 0.0996,2.34185 0.0996,6.90375 0,4.56191 -0.0174,5.10207 -0.0996,6.90376 -0.076,1.66571 -0.35435,2.57026 -0.58825,3.17233 a 5.657755,5.657755 0 0 1 -3.24239,3.24239 c -0.60201,0.23397 -1.50662,0.51229 -3.17233,0.58825 -1.80122,0.0822 -2.34152,0.0996 -6.90376,0.0996 -4.56224,0 -5.10233,-0.0174 -6.90375,-0.0996 -1.66572,-0.076 -2.57026,-0.35435 -3.17234,-0.58825 a 5.293172,5.293172 0 0 1 -1.96438,-1.278 5.293307,5.293307 0 0 1 -1.27801,-1.96439 c -0.23396,-0.60201 -0.51228,-1.50661 -0.58824,-3.17233 -0.0822,-1.80149 -0.0996,-2.34185 -0.0996,-6.90376 0,-4.5619 0.0174,-5.10206 0.0996,-6.90375 0.076,-1.66572 0.35428,-2.57026 0.58824,-3.17233 a 5.29324,5.29324 0 0 1 1.27815,-1.96445 5.293307,5.293307 0 0 1 1.96438,-1.27801 c 0.60201,-0.23397 1.50662,-0.51229 3.17234,-0.58825 1.80155,-0.0822 2.34185,-0.0996 6.90375,-0.0996 m 0,-3.07827 c -4.63989,0 -5.2219,0.0197 -7.04386,0.10281 -1.81851,0.083 -3.06037,0.37177 -4.14707,0.79413 a 8.374565,8.374565 0 0 0 -3.02599,1.97056 8.374565,8.374565 0 0 0 -1.97109,3.02598 c -0.42203,1.08677 -0.71079,2.32863 -0.79346,4.14714 -0.0835,1.82196 -0.10315,2.40397 -0.10315,7.04386 0,4.63989 0.0197,5.2219 0.10315,7.04386 0.083,1.81851 0.37177,3.06037 0.79413,4.14707 a 8.374633,8.374633 0 0 0 1.97056,3.02599 8.37443,8.37443 0 0 0 3.02599,1.97055 c 1.08676,0.42236 2.32862,0.71113 4.14706,0.79414 1.82224,0.0831 2.40404,0.10281 7.04387,0.10281 4.63982,0 5.22189,-0.0197 7.04386,-0.10281 1.81851,-0.083 3.06037,-0.37178 4.14706,-0.79414 a 8.735961,8.735961 0 0 0 4.99655,-4.99654 c 0.42236,-1.08676 0.71112,-2.32863 0.79413,-4.14707 0.0831,-1.82223 0.10281,-2.40404 0.10281,-7.04386 0,-4.63982 -0.0197,-5.2219 -0.10281,-7.04386 -0.083,-1.81851 -0.37177,-3.06037 -0.79413,-4.14707 a 8.37443,8.37443 0 0 0 -1.97056,-3.02599 8.374498,8.374498 0 0 0 -3.02619,-1.97096 c -1.08676,-0.42202 -2.32863,-0.71079 -4.14713,-0.79345 -1.82197,-0.0835 -2.40398,-0.10315 -7.04387,-0.10315 l 0,0 1.4e-4,0 z"
         style="fill:#ffffff"
         inkscape:connector-curvature="0" />
      <path
         stroke="null"
         id="svg_5"
         d="m 289.9999,191.22692 a 8.773125,8.773125 0 1 0 8.77313,8.77312 8.773125,8.773125 0 0 0 -8.77313,-8.77312 z m 0,14.4679 a 5.694783,5.694783 0 1 1 5.69485,-5.69478 5.694851,5.694851 0 0 1 -5.69485,5.69478 z"
         style="fill:#ffffff"
         inkscape:connector-curvature="0" />
      <circle
         stroke="null"
         transform="scale(0.06781684,0.06781684)"
         id="svg_6"
         r="30.23"
         cy="2814.6448"
         cx="4410.6987"
         style="fill:#ffffff" />
    </g>
  </g>
</svg>
